<svg width="625" height="388" viewBox="0 0 625 388" fill="none" xmlns="http://www.w3.org/2000/svg">
<path fill-rule="evenodd" clip-rule="evenodd" d="M191.558 342.325L185.523 336.526L304.344 337.075L304.579 341.777L285.298 343.658L191.558 342.325Z" fill="#FFBB01"/>
<path fill-rule="evenodd" clip-rule="evenodd" d="M448.948 234.962L459.372 218.662C460.862 216.389 463.291 214.978 466.034 214.822L514.942 212.235C516.666 212.157 517.842 214.038 516.901 215.527L507.418 230.887C505.693 233.708 502.715 235.432 499.423 235.589L450.829 238.097C449.183 238.253 448.086 236.373 448.948 234.962Z" fill="#FFBB01"/>
<path fill-rule="evenodd" clip-rule="evenodd" d="M259.433 326.573L259.354 328.298H272.13L271.503 323.047L265.625 320.696C265.625 320.696 263.9 328.454 259.433 326.573Z" fill="#EE5A24"/>
<path fill-rule="evenodd" clip-rule="evenodd" d="M277.695 238.332C277.695 238.332 261.941 223.285 257.317 216.702C257.317 216.702 246.971 201.107 248.852 197.659C250.89 193.976 251.596 193.349 251.596 193.349L250.733 192.644C250.733 192.644 242.582 200.088 248.46 212.549C255.358 227.047 259.904 234.335 270.406 247.657L277.695 238.332Z" fill="#EE5A24"/>
<path fill-rule="evenodd" clip-rule="evenodd" d="M292.508 175.481C292.508 175.481 301.051 176.813 303.951 182.612C306.929 188.412 302.775 196.248 300.032 200.324L277.068 235.432C277.068 235.432 259.119 258.864 257.552 275.556C257.552 275.556 256.219 286.371 257.081 292.17L257.552 296.089L258.884 297.264C258.884 297.264 260.138 296.402 263.038 297.342L266.095 297.969C266.095 297.969 266.957 297.656 269.387 297.421C269.387 297.421 267.427 281.199 272.6 269.6C277.851 258.002 300.189 227.36 300.189 227.36C300.189 227.36 309.751 213.097 313.278 206.436C316.413 200.559 317.275 189.822 312.102 183.631C307.948 178.616 300.973 174.462 291.959 174.384L292.508 175.481Z" fill="#EE5A24"/>
<path fill-rule="evenodd" clip-rule="evenodd" d="M371.981 116.235C371.981 116.235 392.124 152.755 386.952 193.427C386.952 193.427 400.276 197.267 410.7 199.383C410.7 199.383 424.024 192.644 425.592 194.446C426.375 195.308 427.708 193.976 429.04 193.349C430.373 192.722 432.724 193.035 432.724 193.035C432.724 193.035 432.019 185.826 432.567 173.052C433.508 152.284 432.567 151.187 429.275 142.567C425.983 133.946 414.932 109.261 414.932 109.261C414.932 109.261 423.632 130.89 411.405 136.532C404.43 139.824 385.384 138.492 371.981 116.235Z" fill="#45A4EC"/>
<path d="M261.763 140.331C261.799 139.206 261.408 138.281 260.889 138.264C260.369 138.247 259.919 139.145 259.882 140.27C259.845 141.395 260.236 142.32 260.756 142.337C261.275 142.354 261.726 141.456 261.763 140.331Z" fill="black"/>
<path d="M249.861 141.562C249.898 140.437 249.507 139.512 248.987 139.495C248.468 139.478 248.017 140.376 247.981 141.501C247.944 142.625 248.335 143.551 248.854 143.568C249.374 143.585 249.825 142.687 249.861 141.562Z" fill="black"/>
<path d="M316.726 191.468C334.988 197.894 349.252 202.361 349.252 202.361C349.252 202.361 366.965 207.769 370.728 219.053C374.49 230.26 381.857 285.196 381.857 285.196" stroke="black" stroke-width="2" stroke-miterlimit="10" stroke-linecap="round" stroke-linejoin="round"/>
<path d="M283.729 153.93L296.505 188.882" stroke="black" stroke-width="2" stroke-miterlimit="10" stroke-linecap="round" stroke-linejoin="round"/>
<path d="M252.223 186.923L250.576 199.932" stroke="black" stroke-width="2.0666" stroke-miterlimit="10" stroke-linecap="round" stroke-linejoin="round"/>
<path d="M251.988 186.844C248.696 185.982 243.837 182.612 243.131 170.152C242.112 151.187 242.112 120.859 242.112 120.859C242.112 120.859 239.761 109.887 249.95 109.104C260.139 108.242 271.347 107.693 271.347 107.693C271.347 107.693 283.339 107.615 283.574 118.9L283.652 135.513" stroke="black" stroke-width="2.0666" stroke-miterlimit="10" stroke-linecap="round" stroke-linejoin="round"/>
<path d="M283.258 140.372L282.317 174.306C282.317 174.306 281.69 186.844 265.309 186.844L252.612 186.688" stroke="black" stroke-width="1.0333" stroke-miterlimit="10" stroke-linecap="round" stroke-linejoin="round"/>
<path d="M283.418 136.611L283.261 140.372" stroke="black" stroke-width="2.0666" stroke-miterlimit="10" stroke-linecap="round" stroke-linejoin="round"/>
<path d="M242.973 117.332C242.973 117.332 262.567 112.082 276.126 116.784L275.656 129.871C275.656 129.871 275.029 137.786 281.691 138.413" stroke="black" stroke-width="1.0333" stroke-miterlimit="10" stroke-linecap="round" stroke-linejoin="round"/>
<path d="M283.888 143.272C283.888 143.272 287.258 138.805 291.255 139.98C295.252 141.156 296.35 146.798 294.39 150.246C292.509 153.459 287.023 155.811 284.123 151.265" stroke="black" stroke-width="2.0666" stroke-miterlimit="10" stroke-linecap="round" stroke-linejoin="round"/>
<path d="M284.75 147.896C284.75 147.896 286.945 143.272 290.393 143.742" stroke="black" stroke-width="1.0333" stroke-miterlimit="10" stroke-linecap="round" stroke-linejoin="round"/>
<path d="M279.969 139.667L279.499 147.974C279.499 147.974 279.813 150.639 282.399 150.168" stroke="black" stroke-width="1.0333" stroke-miterlimit="10" stroke-linecap="round" stroke-linejoin="round"/>
<path d="M252.848 135.905L252.221 153.93C252.221 153.93 251.908 157.613 254.729 157.535C257.551 157.378 257.786 154.635 257.786 154.635" stroke="black" stroke-width="1.0333" stroke-miterlimit="10" stroke-linecap="round" stroke-linejoin="round"/>
<path d="M254.339 139.354C254.339 139.354 253.79 150.012 258.806 151.109C263.822 152.206 273.071 151.501 273.698 142.724C274.325 133.947 271.503 131.125 264.214 131.674C260.374 131.909 255.749 132.222 252.301 132.458" stroke="black" stroke-width="1.0333" stroke-miterlimit="10" stroke-linecap="round" stroke-linejoin="round"/>
<path d="M250.891 132.3L243.994 132.849C243.994 132.849 238.272 132.3 238.272 137.943C238.272 141.94 237.254 152.989 246.189 152.833C246.189 152.833 252.067 152.911 252.302 147.504" stroke="black" stroke-width="1.0333" stroke-miterlimit="10" stroke-linecap="round" stroke-linejoin="round"/>
<path d="M265.78 123.837C265.78 123.837 264.29 121.172 260.842 121.172" stroke="black" stroke-width="1.0333" stroke-miterlimit="10" stroke-linecap="round" stroke-linejoin="round"/>
<path d="M248.224 123.366C248.224 123.366 245.481 124.228 245.089 126.501" stroke="black" stroke-width="1.0333" stroke-miterlimit="10" stroke-linecap="round" stroke-linejoin="round"/>
<path d="M254.731 167.723C254.731 167.723 265.704 169.995 266.802 158.083" stroke="black" stroke-width="1.0333" stroke-miterlimit="10" stroke-linecap="round" stroke-linejoin="round"/>
<path d="M268.522 157.771C268.522 157.771 267.66 156.046 265.309 156.987" stroke="black" stroke-width="1.0333" stroke-miterlimit="10" stroke-linecap="round" stroke-linejoin="round"/>
<path d="M208.803 229.476C205.981 242.407 200.338 295.54 200.338 295.54" stroke="black" stroke-width="2" stroke-miterlimit="10" stroke-linecap="round" stroke-linejoin="round"/>
<path d="M244.54 202.831L226.984 212.236C226.984 212.236 225.26 213.019 222.908 214.43" stroke="black" stroke-width="2" stroke-miterlimit="10" stroke-linecap="round" stroke-linejoin="round"/>
<path d="M376.294 80.7347C370.573 93.8221 353.878 100.718 345.022 105.264C336.165 109.809 328.562 120.545 328.562 131.203C328.562 141.94 343.376 199.853 343.376 199.853" stroke="black" stroke-width="2" stroke-miterlimit="10" stroke-linecap="round" stroke-linejoin="round"/>
<path d="M387.425 28.1501C387.425 28.1501 387.66 29.8742 379.274 48.5257C373.082 62.24 377.393 77.9135 385.152 81.9102" stroke="black" stroke-miterlimit="10" stroke-linecap="round" stroke-linejoin="round"/>
<path d="M388.365 29.8743C388.365 29.8743 390.011 48.1339 404.276 49.6229C404.276 49.6229 402.238 45.6261 401.925 41.551C401.925 41.551 411.643 54.3249 419.716 51.9739" stroke="black" stroke-miterlimit="10" stroke-linecap="round" stroke-linejoin="round"/>
<path d="M417.676 54.8735C417.676 54.8735 426.532 76.0327 418.381 83.2425" stroke="black" stroke-miterlimit="10" stroke-linecap="round" stroke-linejoin="round"/>
<path d="M368.378 84.4181C368.378 84.4181 363.048 74.7005 367.516 66.6287" stroke="black" stroke-miterlimit="10" stroke-linecap="round" stroke-linejoin="round"/>
<path d="M419.166 85.7501C419.166 85.7501 432.726 88.8065 433.901 75.484C435.077 62.2399 425.672 50.3281 427.161 35.7517C428.65 21.1754 413.602 7.6178 399.494 6.44228C385.386 5.26677 371.121 9.96882 368.143 20.7052C365.086 31.4415 366.81 37.7893 359.756 47.3501C354.191 54.8734 342.827 74.5436 368.299 84.4179" stroke="black" stroke-width="2" stroke-miterlimit="10" stroke-linecap="round" stroke-linejoin="round"/>
<path d="M368.691 70.1553C368.691 70.1553 372.375 82.3806 383.818 82.6941" stroke="black" stroke-miterlimit="10" stroke-linecap="round" stroke-linejoin="round"/>
<path d="M409.605 80.4995C409.605 80.4995 408.038 83.2424 406.862 83.8693C405.687 84.5746 411.957 86.8473 415.954 84.1828" stroke="black" stroke-miterlimit="10" stroke-linecap="round" stroke-linejoin="round"/>
<path d="M416.658 55.0303C416.658 55.0303 416.501 86.6907 394.869 85.907C394.869 85.907 389.853 85.5936 386.013 82.8507" stroke="black" stroke-miterlimit="10" stroke-linecap="round" stroke-linejoin="round"/>
<path d="M404.039 84.9667C404.039 84.9667 401.766 97.1136 401.766 103.54" stroke="black" stroke-miterlimit="10" stroke-linecap="round" stroke-linejoin="round"/>
<path d="M364.536 94.6057C364.536 94.6057 373.001 138.021 403.725 135.749C427.081 134.025 405.763 93.3518 405.763 93.3518" stroke="black" stroke-miterlimit="10" stroke-linecap="round" stroke-linejoin="round"/>
<path d="M403.177 90.8442C403.177 90.8442 422.849 99.0728 430.922 103.148C440.876 108.163 441.895 110.514 447.773 126.501C451.928 137.943 456.865 153.538 456.865 153.538" stroke="black" stroke-width="2" stroke-miterlimit="10" stroke-linecap="round" stroke-linejoin="round"/>
<path d="M408.349 94.0571C408.349 94.0571 427.081 140.529 429.746 150.482C431.313 156.516 429.824 171.954 430.138 190.919" stroke="black" stroke-miterlimit="10" stroke-linecap="round" stroke-linejoin="round"/>
<path d="M451.302 193.662C451.302 195.308 451.537 196.875 451.694 198.6" stroke="black" stroke-miterlimit="10" stroke-linecap="round" stroke-linejoin="round"/>
<path d="M440.172 129.479C440.172 129.479 451.693 151.266 454.828 159.886C457.023 165.999 453.496 173.914 451.85 184.023" stroke="black" stroke-width="2" stroke-miterlimit="10" stroke-linecap="round" stroke-linejoin="round"/>
<path d="M405.451 52.2874L403.256 66.2368C403.256 66.2368 402.786 69.2147 400.278 68.5878C397.77 67.9608 398.553 64.1208 398.553 64.1208" stroke="black" stroke-miterlimit="10" stroke-linecap="round" stroke-linejoin="round"/>
<path d="M392.675 71.8794C392.675 71.8794 395.026 75.7194 399.415 73.6818" stroke="black" stroke-miterlimit="10" stroke-linecap="round" stroke-linejoin="round"/>
<path d="M385.54 187.314C385.54 187.314 387.813 163.491 383.581 149.463C379.348 135.435 362.184 96.6433 362.184 96.6433" stroke="black" stroke-miterlimit="10" stroke-linecap="round" stroke-linejoin="round"/>
<path d="M384.211 141.391C384.211 141.391 415.092 138.57 423.713 138.1" stroke="black" stroke-miterlimit="10" stroke-linecap="round" stroke-linejoin="round"/>
<path d="M385.854 152.049C385.854 152.049 422.849 149.698 426.532 149.463" stroke="black" stroke-miterlimit="10" stroke-linecap="round" stroke-linejoin="round"/>
<path d="M387.656 165.764L428.804 165.058" stroke="black" stroke-miterlimit="10" stroke-linecap="round" stroke-linejoin="round"/>
<path d="M388.128 181.359L427.003 183.162" stroke="black" stroke-miterlimit="10" stroke-linecap="round" stroke-linejoin="round"/>
<path d="M399.651 195.935L412.74 197.268" stroke="black" stroke-miterlimit="10" stroke-linecap="round" stroke-linejoin="round"/>
<path d="M396.922 53.88C397.034 52.6298 396.739 51.582 396.265 51.5398C395.79 51.4977 395.315 52.477 395.204 53.7273C395.093 54.9776 395.388 56.0253 395.862 56.0675C396.337 56.1096 396.811 55.1303 396.922 53.88Z" fill="black"/>
<path d="M409.64 55.964C409.751 54.7137 409.457 53.666 408.982 53.6238C408.508 53.5817 408.033 54.561 407.922 55.8113C407.811 57.0615 408.105 58.1093 408.58 58.1514C409.054 58.1936 409.529 57.2143 409.64 55.964Z" fill="black"/>
<path d="M272.208 133.789L283.729 142.41" stroke="black" stroke-width="1.0333" stroke-miterlimit="10" stroke-linecap="round" stroke-linejoin="round"/>
<path fill-rule="evenodd" clip-rule="evenodd" d="M381.859 82.6938C381.859 82.6938 393.381 97.1135 403.178 90.1388L404.275 84.0261C404.275 84.0261 395.811 89.12 385.543 82.4587C385.543 82.4587 382.486 83.164 381.859 82.6938Z" fill="black"/>
<path fill-rule="evenodd" clip-rule="evenodd" d="M113.963 138.178H189.91C192.418 138.178 194.613 139.902 195.162 142.332L206.134 190.371C206.918 193.741 204.332 196.954 200.883 196.954H125.406C122.898 196.954 120.781 195.23 120.154 192.8L108.633 144.761C107.927 141.47 110.436 138.178 113.963 138.178Z" fill="#45A4EC"/>
<path d="M111.379 133.946H182.31C185.132 133.946 187.483 135.827 188.189 138.57L200.416 192.173C201.278 195.935 198.456 199.54 194.537 199.54H124.233" stroke="black" stroke-width="0.9214" stroke-miterlimit="10" stroke-linecap="round" stroke-linejoin="round"/>
<path fill-rule="evenodd" clip-rule="evenodd" d="M108.948 133.946H179.88C182.701 133.946 185.052 135.827 185.758 138.57L197.985 192.173C198.847 195.935 196.025 199.54 192.106 199.54H121.724C118.98 199.54 116.551 197.659 115.924 194.916L103.07 141.313C102.208 137.551 105.108 133.946 108.948 133.946Z" stroke="black" stroke-width="2" stroke-miterlimit="10" stroke-linecap="round" stroke-linejoin="round"/>
<path d="M588.617 109.026H519.567C516.823 109.026 514.472 110.906 513.845 113.492L501.932 165.607C501.07 169.29 503.813 172.817 507.653 172.817H576.077" stroke="black" stroke-miterlimit="10" stroke-linecap="round" stroke-linejoin="round"/>
<path fill-rule="evenodd" clip-rule="evenodd" d="M590.97 109.026H521.919C519.176 109.026 516.825 110.906 516.198 113.492L504.284 165.607C503.422 169.29 506.165 172.817 510.006 172.817H578.429C581.094 172.817 583.445 170.936 584.072 168.35L596.534 116.235C597.475 112.552 594.732 109.026 590.97 109.026Z" stroke="#45A4EC" stroke-width="2" stroke-miterlimit="10" stroke-linecap="round" stroke-linejoin="round"/>
<path d="M178.467 162.08H137.711" stroke="black" stroke-miterlimit="10" stroke-linecap="round" stroke-linejoin="round"/>
<path d="M190.459 176.97H149.703" stroke="black" stroke-miterlimit="10" stroke-linecap="round" stroke-linejoin="round"/>
<path fill-rule="evenodd" clip-rule="evenodd" d="M417.126 54.7168C417.126 54.7168 416.499 76.738 405.291 83.4776C405.291 83.4776 408.191 85.4368 411.796 85.2801C416.029 85.045 421.045 82.2238 421.437 75.4058C422.142 62.6319 417.126 54.7168 417.126 54.7168Z" fill="black"/>
<path d="M367.516 83.7913C367.516 83.7913 357.641 77.1301 358.66 66.8639C359.679 56.5978 368.535 55.6574 368.849 47.1154" stroke="black" stroke-miterlimit="10" stroke-linecap="round" stroke-linejoin="round"/>
<path d="M375.589 10.831C375.589 10.831 373.316 8.16649 369.24 8.6367" stroke="black" stroke-miterlimit="10" stroke-linecap="round" stroke-linejoin="round"/>
<path fill-rule="evenodd" clip-rule="evenodd" d="M605.234 141.391L622.164 141.626C622.712 141.626 624.045 143.037 623.888 143.585L613.856 183.004C613.777 183.396 613.385 183.631 613.072 183.631H596.456C595.907 183.631 594.575 182.221 594.731 181.672L604.529 142.018C604.529 141.626 604.842 141.391 605.234 141.391Z" stroke="#45A4EC" stroke-miterlimit="10" stroke-linecap="round" stroke-linejoin="round"/>
<path d="M595.672 183.396L594.339 182.142C593.712 181.594 593.399 181.123 593.556 180.575L603.353 140.921C603.431 140.529 603.823 140.294 604.215 140.294L621.144 140.529C621.693 140.529 623.888 142.41 623.809 142.958" stroke="#45A4EC" stroke-miterlimit="10" stroke-linecap="round" stroke-linejoin="round"/>
<path d="M421.361 83.8696C421.361 83.8696 431.002 79.6377 428.337 69.2932" stroke="black" stroke-miterlimit="10" stroke-linecap="round" stroke-linejoin="round"/>
<path d="M375.747 9.107C375.747 9.107 374.963 8.16658 375.119 6.28577" stroke="black" stroke-miterlimit="10" stroke-linecap="round" stroke-linejoin="round"/>
<path d="M427.789 21.9594C427.789 21.9594 431.708 28.2287 430.14 34.89" stroke="black" stroke-miterlimit="10" stroke-linecap="round" stroke-linejoin="round"/>
<path d="M614.089 149.564C614.365 148.744 613.991 147.877 613.253 147.628C612.514 147.379 611.691 147.842 611.414 148.662C611.137 149.482 611.512 150.349 612.25 150.598C612.989 150.847 613.812 150.384 614.089 149.564Z" stroke="#45A4EC" stroke-miterlimit="10" stroke-linecap="round" stroke-linejoin="round"/>
<path fill-rule="evenodd" clip-rule="evenodd" d="M507.264 72.3496H471.602C470.584 72.3496 469.8 71.566 469.8 70.5472V47.5072C469.8 46.4884 470.584 45.7047 471.602 45.7047H513.534C514.553 45.7047 515.337 46.4884 515.337 47.5072V70.4688C515.337 71.4876 514.553 72.2713 513.534 72.2713H512.359H507.264V72.3496Z" stroke="black" stroke-miterlimit="10" stroke-linecap="round" stroke-linejoin="round"/>
<path d="M479.28 55.2655H507.261" stroke="black" stroke-miterlimit="10" stroke-linecap="round" stroke-linejoin="round"/>
<path d="M479.28 60.908H507.261" stroke="black" stroke-miterlimit="10" stroke-linecap="round" stroke-linejoin="round"/>
<path fill-rule="evenodd" clip-rule="evenodd" d="M129.874 206.75L170.473 228.849C170.708 228.928 170.865 229.006 171.1 229.006H241.326C242.737 229.006 243.207 227.125 242.032 226.42L205.821 205.417C204.411 204.555 202.765 204.164 201.119 204.164H130.579C129.09 204.164 128.62 206.044 129.874 206.75Z" stroke="#45A4EC" stroke-width="2" stroke-miterlimit="10" stroke-linecap="round" stroke-linejoin="round"/>
<path fill-rule="evenodd" clip-rule="evenodd" d="M564.085 23.3699C564.085 16.2384 558.285 10.4392 551.153 10.4392C549.82 10.4392 548.488 10.6743 547.312 10.9878C544.49 4.95352 538.455 0.800049 531.323 0.800049C524.191 0.800049 518.077 5.03189 515.256 11.1446C513.923 10.6743 512.513 10.4392 510.945 10.4392C503.813 10.4392 498.013 16.2384 498.013 23.3699C498.013 23.8401 498.013 24.2319 498.091 24.6237C498.091 31.2066 503.421 36.614 510.083 36.614H552.171C558.755 36.614 564.163 31.285 564.163 24.6237V24.0752C564.085 23.8401 564.085 23.605 564.085 23.3699Z" stroke="#EE5A24" stroke-miterlimit="10"/>
<path fill-rule="evenodd" clip-rule="evenodd" d="M136.902 98.3589C136.902 89.3983 129.624 82.1116 120.675 82.1116C119.004 82.1116 117.332 82.407 115.857 82.8009C112.316 75.2188 104.744 70 95.795 70C86.846 70 79.1754 75.3173 75.6351 82.9978C73.9633 82.407 72.1931 82.1116 70.2263 82.1116C61.2773 82.1116 54 89.3983 54 98.3589C54 98.9497 54 99.442 54.0983 99.9344C54.0983 108.206 60.7855 115 69.1445 115H121.954C130.214 115 137 108.304 137 99.9344V99.3436C136.902 98.9497 136.902 98.6543 136.902 98.3589Z" stroke="#EE5A24" stroke-miterlimit="10"/>
<path fill-rule="evenodd" clip-rule="evenodd" d="M41.9514 156.864C41.9514 152.484 38.3566 148.921 33.936 148.921C33.1102 148.921 32.2844 149.066 31.5557 149.258C29.8069 145.551 26.0664 143 21.6457 143C17.2251 143 13.436 145.6 11.6872 149.354C10.8614 149.066 9.98697 148.921 9.0154 148.921C4.59479 148.921 1 152.484 1 156.864C1 157.153 0.999999 157.394 1.04858 157.635C1.04858 161.678 4.35189 165 8.48104 165H34.5675C38.6481 165 42 161.726 42 157.635V157.346C41.9514 157.153 41.9514 157.009 41.9514 156.864Z" stroke="#EE5A24" stroke-miterlimit="10"/>
<path d="M456.553 48.6044C459.8 48.6044 462.431 45.9729 462.431 42.7268C462.431 39.4807 459.8 36.8492 456.553 36.8492C453.307 36.8492 450.675 39.4807 450.675 42.7268C450.675 45.9729 453.307 48.6044 456.553 48.6044Z" fill="#3278B2"/>
<path d="M464.788 44.0938C465.523 39.5652 462.448 35.2985 457.919 34.5638C453.389 33.8291 449.121 36.9047 448.386 41.4332C447.651 45.9618 450.726 50.2285 455.256 50.9632C459.785 51.6979 464.053 48.6223 464.788 44.0938Z" stroke="#3278B2" stroke-width="0.6366" stroke-miterlimit="10" stroke-dasharray="3.17 3.17"/>
<path d="M456.554 47.1152C458.978 47.1152 460.943 45.1503 460.943 42.7266C460.943 40.3029 458.978 38.338 456.554 38.338C454.13 38.338 452.165 40.3029 452.165 42.7266C452.165 45.1503 454.13 47.1152 456.554 47.1152Z" fill="#FFBB01"/>
<path d="M207.392 143.115C208.604 143.115 209.586 142.133 209.586 140.921C209.586 139.709 208.604 138.727 207.392 138.727C206.18 138.727 205.197 139.709 205.197 140.921C205.197 142.133 206.18 143.115 207.392 143.115Z" fill="#FFBB01"/>
<path d="M211.937 136.846C214.231 136.846 216.091 134.986 216.091 132.692C216.091 130.398 214.231 128.539 211.937 128.539C209.643 128.539 207.783 130.398 207.783 132.692C207.783 134.986 209.643 136.846 211.937 136.846Z" fill="#8ADF56"/>
<path d="M205.038 129.323C208.154 129.323 210.681 126.797 210.681 123.68C210.681 120.564 208.154 118.038 205.038 118.038C201.921 118.038 199.395 120.564 199.395 123.68C199.395 126.797 201.921 129.323 205.038 129.323Z" fill="#EE5A24"/>
<path d="M171.257 102.678C165.927 102.678 161.538 107.066 161.538 112.395C161.538 117.724 165.927 122.113 171.257 122.113C176.587 122.113 180.976 117.724 180.976 112.395V102.678H171.257Z" fill="#EE5A24"/>
<path d="M471.445 185.982L457.415 188.02" stroke="black" stroke-width="2" stroke-miterlimit="10" stroke-linecap="round" stroke-linejoin="round"/>
<path d="M462.194 152.676C462.194 152.676 458.431 178.067 471.442 185.982" stroke="black" stroke-miterlimit="10" stroke-linecap="round" stroke-linejoin="round"/>
<path d="M453.182 154.166L462.195 152.676" stroke="black" stroke-width="2" stroke-miterlimit="10" stroke-linecap="round" stroke-linejoin="round"/>
<path d="M410.701 199.461C410.701 199.461 421.204 191.546 426.533 195.073C426.533 195.073 430.531 190.919 434.293 193.662C434.293 193.662 436.644 189.509 439.466 191.076C439.466 191.076 443.071 183.553 446.833 183.945C450.125 184.258 455.455 186.531 459.06 190.841C463.057 195.621 457.963 197.816 455.925 196.954C453.887 196.092 447.774 190.841 447.774 190.841" stroke="black" stroke-width="2" stroke-miterlimit="10" stroke-linecap="round" stroke-linejoin="round"/>
<path d="M444.64 192.879C444.64 192.879 452.556 198.208 452.399 202.048C452.242 206.515 455.769 213.098 452.399 214.508C450.048 215.449 448.167 213.881 447.069 212" stroke="black" stroke-width="2" stroke-miterlimit="10" stroke-linecap="round" stroke-linejoin="round"/>
<path d="M443.776 215.292C440.876 214.586 439.308 211.295 438.368 208.944C437.584 206.985 437.662 207.533 437.662 207.533" stroke="black" stroke-miterlimit="10" stroke-linecap="round" stroke-linejoin="round"/>
<path d="M447.459 212.784C447.538 214.195 446.676 215.762 445.813 215.997C445.03 216.154 444.638 215.997 444.011 215.84" stroke="black" stroke-width="2" stroke-miterlimit="10" stroke-linecap="round" stroke-linejoin="round"/>
<path d="M438.291 195.857C438.291 195.857 443.621 199.461 444.013 202.204C444.169 203.537 445.58 209.179 446.913 211.922" stroke="black" stroke-miterlimit="10" stroke-linecap="round" stroke-linejoin="round"/>
<path d="M430.375 198.207C430.375 198.207 437.507 202.204 437.507 207.298C437.507 212.392 433.823 212.157 431.786 209.414C429.748 206.671 425.594 202.909 425.594 202.909C425.594 202.909 423.086 204.869 421.361 203.85" stroke="black" stroke-miterlimit="10" stroke-linecap="round" stroke-linejoin="round"/>
<path d="M443.698 215.605C443.698 215.605 431.079 228.379 416.344 218.034L405.842 218.975" stroke="black" stroke-width="2" stroke-miterlimit="10" stroke-linecap="round" stroke-linejoin="round"/>
<path d="M453.024 200.951L460.705 201.421C460.705 201.421 463.919 202.44 463.762 205.339C463.605 208.239 458.119 209.414 454.435 208.709" stroke="black" stroke-width="2" stroke-miterlimit="10" stroke-linecap="round" stroke-linejoin="round"/>
<path d="M409.839 198.913C409.839 198.913 381.466 194.367 370.493 186.061" stroke="black" stroke-miterlimit="10" stroke-linecap="round" stroke-linejoin="round"/>
<path d="M379.116 190.293L368.849 151.031" stroke="black" stroke-miterlimit="10" stroke-linecap="round" stroke-linejoin="round"/>
<path d="M408.822 200.559C408.822 200.559 403.414 212.157 405.843 223.05C408.587 235.04 418.776 232.141 421.754 221.012" stroke="black" stroke-width="2" stroke-miterlimit="10" stroke-linecap="round" stroke-linejoin="round"/>
<path d="M410.623 231.2C410.623 231.2 392.439 235.511 374.334 230.495" stroke="black" stroke-width="2" stroke-miterlimit="10" stroke-linecap="round" stroke-linejoin="round"/>
<path d="M333.655 241.623L337.104 262.626" stroke="black" stroke-miterlimit="10" stroke-linecap="round" stroke-linejoin="round"/>
<path d="M253.239 289.192C250.888 269.444 269.542 240.84 269.542 240.84C269.542 240.84 298.463 200.01 301.912 190.449C305.282 180.888 293.055 176.5 293.055 176.5" stroke="black" stroke-miterlimit="10" stroke-linecap="round" stroke-linejoin="round"/>
<path d="M290.784 173.914C290.784 173.914 303.167 174.149 307.87 180.105C312.572 186.061 315.081 196.954 309.594 206.828C304.5 216.154 279.811 252.438 276.676 257.14C276.44 257.453 274.246 260.745 271.816 265.76C268.838 271.873 265.703 279.396 267.035 296.167" stroke="black" stroke-miterlimit="10" stroke-linecap="round" stroke-linejoin="round"/>
<path d="M250.496 194.446C250.496 194.446 246.499 198.443 250.731 206.593C254.964 214.743 268.053 230.103 272.99 233.786" stroke="black" stroke-miterlimit="10" stroke-linecap="round" stroke-linejoin="round"/>
<path d="M265.546 245.62C265.546 245.62 254.652 234.492 247.519 215.213C240.309 195.935 251.517 191.938 251.517 191.938" stroke="black" stroke-miterlimit="10" stroke-linecap="round" stroke-linejoin="round"/>
<path d="M377.153 251.497C377.153 251.497 395.572 270.306 428.882 269.052C457.412 267.955 469.639 248.676 508.906 248.676" stroke="black" stroke-width="2" stroke-miterlimit="10" stroke-linecap="round" stroke-linejoin="round"/>
<path fill-rule="evenodd" clip-rule="evenodd" d="M445.58 232.219L456.004 215.919C457.493 213.646 459.923 212.236 462.666 212.079L511.574 209.493C513.298 209.414 514.474 211.295 513.533 212.784L503.971 228.223C502.247 231.044 499.269 232.768 495.977 232.925L447.383 235.432C445.737 235.589 444.64 233.708 445.58 232.219Z" stroke="black" stroke-miterlimit="10" stroke-linecap="round" stroke-linejoin="round"/>
<path d="M117.49 350.241H131.598C151.898 350.241 172.198 353.062 191.714 358.704L254.337 376.65C297.758 389.111 343.923 387.779 386.56 372.81L428.1 358.312C451.3 350.241 475.675 346.087 500.207 346.087H514.158" stroke="black" stroke-width="2.3889" stroke-miterlimit="10" stroke-linecap="round" stroke-linejoin="round"/>
<path d="M210.291 303.612C210.291 303.612 203.08 296.089 199.083 295.54C195.164 295.07 189.05 296.167 187.404 300.477C187.404 300.477 180.194 299.459 178.548 308.549C178.548 308.549 170.632 305.885 170.161 319.05C170.161 319.05 166.242 320.226 166.556 325.32C166.869 330.414 169.848 334.332 172.826 331.041C172.826 331.041 178.391 331.041 178.94 323.988C178.94 323.988 181.683 331.433 186.464 333C194.223 335.664 199.318 330.884 199.318 330.884C199.318 330.884 205.588 335.664 213.112 329.708" stroke="black" stroke-width="2" stroke-miterlimit="10" stroke-linecap="round" stroke-linejoin="round"/>
<path d="M212.8 315.445C212.8 315.445 212.016 329.708 216.092 331.197C220.167 332.686 222.519 328.376 222.832 322.655C223.146 316.934 222.44 314.74 222.44 314.74" stroke="black" stroke-width="1.0763" stroke-miterlimit="10" stroke-linecap="round" stroke-linejoin="round"/>
<path d="M178.939 323.987C178.939 323.987 182.466 325.79 184.347 324.458C186.229 323.047 186.229 318.267 186.229 318.267" stroke="black" stroke-width="1.0763" stroke-miterlimit="10" stroke-linecap="round" stroke-linejoin="round"/>
<path d="M186.698 302.75C186.698 302.75 183.641 318.58 189.754 319.599C195.868 320.618 195.946 304.317 195.946 304.317" stroke="black" stroke-width="1.0763" stroke-miterlimit="10" stroke-linecap="round" stroke-linejoin="round"/>
<path d="M177.604 311.37C177.604 311.37 176.977 317.404 178.545 323.204" stroke="black" stroke-width="1.0763" stroke-miterlimit="10" stroke-linecap="round" stroke-linejoin="round"/>
<path d="M170.395 321.088C170.395 321.088 169.768 326.182 172.982 330.727" stroke="black" stroke-width="1.0763" stroke-miterlimit="10" stroke-linecap="round" stroke-linejoin="round"/>
<path fill-rule="evenodd" clip-rule="evenodd" d="M252.066 191.311L274.717 191.625C274.717 191.625 282.555 190.136 283.888 182.142C285.22 174.149 283.731 154.635 283.731 154.635L282.712 157.3L282.007 175.481C282.007 175.481 280.204 185.356 271.347 186.296L252.145 187.001L252.066 191.311Z" fill="black"/>
<path d="M331.227 265.447C320.332 270.071 319.94 281.747 319.94 281.747" stroke="black" stroke-width="2" stroke-miterlimit="10" stroke-linecap="round" stroke-linejoin="round"/>
<path d="M363.674 270.619C363.674 270.619 345.177 259.491 331.226 265.447" stroke="black" stroke-width="2" stroke-miterlimit="10" stroke-linecap="round" stroke-linejoin="round"/>
<path d="M350.117 265.055C350.117 265.055 353.801 255.573 367.83 253.065C367.83 253.065 371.984 268.033 371.514 276.575" stroke="black" stroke-width="2" stroke-miterlimit="10" stroke-linecap="round" stroke-linejoin="round"/>
<path d="M354.977 265.917C354.977 265.917 359.366 256.905 367.047 254.162" stroke="black" stroke-miterlimit="10" stroke-linecap="round" stroke-linejoin="round"/>
<path d="M333.343 264.114C333.343 264.114 333.343 256.983 328.484 252.986C328.484 252.986 319.471 260.039 321.195 273.44" stroke="black" stroke-width="2" stroke-miterlimit="10" stroke-linecap="round" stroke-linejoin="round"/>
<path d="M330.445 264.271C330.445 264.271 330.132 257.14 328.328 254.083" stroke="black" stroke-miterlimit="10" stroke-linecap="round" stroke-linejoin="round"/>
<path d="M334.989 304.709C335.616 304.866 336.322 305.022 337.027 305.101C360.384 309.254 374.883 289.819 377.627 280.101L369.397 285.43C369.397 285.43 376.137 275.478 376.686 273.675C376.686 273.675 369.24 279.004 364.146 280.963" stroke="black" stroke-miterlimit="10" stroke-linecap="round" stroke-linejoin="round"/>
<path d="M319.156 278.142C319.156 278.142 315.002 277.045 313.199 275.243C313.199 275.243 313.513 278.926 315.159 281.199C315.159 281.199 312.259 280.102 311.632 278.299C311.632 278.299 314.453 299.772 334.91 304.709" stroke="black" stroke-width="2" stroke-miterlimit="10" stroke-linecap="round" stroke-linejoin="round"/>
<path d="M337.024 305.101C337.024 305.101 341.727 313.8 353.17 310.743C361.4 308.549 364.613 302.201 364.77 298.518" stroke="black" stroke-miterlimit="10" stroke-linecap="round" stroke-linejoin="round"/>
<path d="M346.197 273.205C346.197 273.205 345.569 274.067 345.256 275.869" stroke="black" stroke-width="2" stroke-miterlimit="10" stroke-linecap="round" stroke-linejoin="round"/>
<path d="M328.013 272.108C328.013 272.108 327.386 272.97 327.072 274.773" stroke="black" stroke-width="2" stroke-miterlimit="10" stroke-linecap="round" stroke-linejoin="round"/>
<path fill-rule="evenodd" clip-rule="evenodd" d="M332.088 275.635C332.95 275.635 334.361 275.635 335.615 275.792C336.164 275.87 336.399 276.575 336.007 276.967C335.223 277.751 334.126 278.769 333.264 279.24C332.95 279.396 332.48 279.318 332.323 279.005C332.01 278.534 331.618 277.672 331.461 276.418C331.383 276.027 331.696 275.713 332.088 275.635Z" fill="black"/>
<path d="M332.638 279.788C332.638 279.788 327.857 293.346 337.889 291.622" stroke="black" stroke-miterlimit="10" stroke-linecap="round" stroke-linejoin="round"/>
<path d="M331.148 288.8C331.148 288.8 329.816 291.309 327.621 290.29" stroke="black" stroke-miterlimit="10" stroke-linecap="round" stroke-linejoin="round"/>
<path d="M428.416 326.338C427.711 327.827 426.535 329.238 424.968 330.57C414.073 339.269 400.514 331.119 394.087 338.72C388.914 344.833 380.449 347.811 376.922 341.15C373.395 334.41 387.66 327.122 396.673 326.338C404.511 325.711 417.835 322.733 420.03 320.382C420.03 320.382 421.284 319.364 422.303 317.169" stroke="black" stroke-miterlimit="10" stroke-linecap="round" stroke-linejoin="round"/>
<path d="M382.721 286.371C388.207 285.901 395.81 285.979 403.804 288.409C414.855 291.778 422.38 301.026 424.026 307.295C424.026 307.295 432.569 317.875 428.415 326.339" stroke="black" stroke-width="2" stroke-miterlimit="10" stroke-linecap="round" stroke-linejoin="round"/>
<path d="M374.492 287.704C374.492 287.704 377.706 286.763 382.722 286.371" stroke="black" stroke-miterlimit="10" stroke-linecap="round" stroke-linejoin="round"/>
<path d="M375.039 320.618C375.039 320.618 357.796 317.248 350.977 319.599C344.158 321.95 339.22 326.887 340.788 332.921C342.356 338.956 352.78 339.191 357.247 336.291C361.715 333.391 375.823 335.272 375.823 335.272" stroke="black" stroke-miterlimit="10" stroke-linecap="round" stroke-linejoin="round"/>
<path d="M342.513 324.536C342.513 324.536 333.029 317.404 328.64 326.025C326.289 330.648 331.148 337.623 341.337 334.724" stroke="black" stroke-miterlimit="10" stroke-linecap="round" stroke-linejoin="round"/>
<path d="M336.008 305.571C336.008 305.571 331.854 308 329.894 314.348C328.013 320.618 329.424 324.144 329.424 324.144" stroke="black" stroke-miterlimit="10" stroke-linecap="round" stroke-linejoin="round"/>
<path d="M407.018 325.241C407.018 325.241 409.604 325.947 410.936 328.611" stroke="black" stroke-miterlimit="10" stroke-linecap="round" stroke-linejoin="round"/>
<path d="M396.669 326.338C396.669 326.338 402.155 326.73 402.939 331.197" stroke="black" stroke-miterlimit="10" stroke-linecap="round" stroke-linejoin="round"/>
<path d="M385.7 329.865C385.7 329.865 392.362 328.767 395.889 334.488" stroke="black" stroke-miterlimit="10" stroke-linecap="round" stroke-linejoin="round"/>
<path d="M322.918 299.85L292.351 301.261" stroke="black" stroke-miterlimit="10" stroke-linecap="round" stroke-linejoin="round"/>
<path d="M331.226 334.724L314.688 335.272C314.688 335.272 314.531 307.53 295.094 301.496" stroke="black" stroke-miterlimit="10" stroke-linecap="round" stroke-linejoin="round"/>
<path fill-rule="evenodd" clip-rule="evenodd" d="M174.787 334.567L270.799 334.097L301.053 334.802L301.523 340.68L271.505 340.209L177.138 339.269L174.787 334.567Z" stroke="black" stroke-miterlimit="10" stroke-linecap="round" stroke-linejoin="round"/>
<path d="M270.798 334.097L271.974 338.329" stroke="black" stroke-miterlimit="10" stroke-linecap="round" stroke-linejoin="round"/>
<path fill-rule="evenodd" clip-rule="evenodd" d="M177.136 339.269L189.676 342.639L277.067 343.109L301.521 340.679L271.502 340.209L177.136 339.269Z" fill="black"/>
<path d="M275.42 299.145C274.01 300.32 272.755 301.809 271.972 303.69C269.15 310.116 269.307 316.856 272.755 317.796C276.204 318.737 279.026 309.568 279.496 307.765C279.496 307.765 283.728 310.038 286.393 308.784" stroke="black" stroke-miterlimit="10" stroke-linecap="round" stroke-linejoin="round"/>
<path d="M294.783 303.769C294.783 303.769 288.043 297.186 284.124 296.559C281.537 296.089 278.167 296.951 275.424 299.223" stroke="black" stroke-miterlimit="10" stroke-linecap="round" stroke-linejoin="round"/>
<path d="M264.999 298.283C261.55 300.085 259.199 304.004 258.415 309.489C257.631 315.759 255.986 325.946 259.434 326.573C262.883 327.2 265.548 323.909 267.507 311.292" stroke="black" stroke-miterlimit="10" stroke-linecap="round" stroke-linejoin="round"/>
<path d="M274.715 299.146C274.715 299.146 269.934 296.323 266.328 297.656C265.858 297.813 265.388 298.048 264.996 298.283" stroke="black" stroke-miterlimit="10" stroke-linecap="round" stroke-linejoin="round"/>
<path d="M258.335 297.656C256.062 299.772 251.908 304.082 251.908 304.082C251.908 304.082 250.106 305.571 249.244 309.333C248.46 313.094 246.971 322.969 246.971 322.969C246.971 322.969 246.657 326.73 249.792 327.201C252.927 327.671 254.025 325.241 254.73 323.125L258.022 312.389" stroke="black" stroke-miterlimit="10" stroke-linecap="round" stroke-linejoin="round"/>
<path d="M264.683 297.813C264.683 297.813 260.607 295.539 258.256 297.656" stroke="black" stroke-miterlimit="10" stroke-linecap="round" stroke-linejoin="round"/>
<path d="M258.335 297.656C258.335 297.656 255.905 292.562 254.259 292.248C252.614 291.935 247.989 290.289 247.989 290.289C247.989 290.289 245.324 290.446 243.365 294.051C241.406 297.656 238.584 302.906 238.584 302.906C238.584 302.906 237.408 306.511 240.7 306.825C243.992 307.138 245.481 305.806 246.814 303.533C248.146 301.261 250.105 297.421 250.105 297.421" stroke="black" stroke-miterlimit="10" stroke-linecap="round" stroke-linejoin="round"/>
<path d="M248.93 299.772L251.751 302.907" stroke="black" stroke-miterlimit="10" stroke-linecap="round" stroke-linejoin="round"/>
<path d="M249.323 309.333L238.507 313.094C238.507 313.094 234.118 315.68 234.901 318.893C235.685 322.106 239.526 320.931 241.563 320.069L247.834 318.188" stroke="black" stroke-miterlimit="10" stroke-linecap="round" stroke-linejoin="round"/>
<path d="M265.702 320.382C265.702 320.382 284.905 332.764 299.561 316.777" stroke="black" stroke-miterlimit="10" stroke-linecap="round" stroke-linejoin="round"/>
<path d="M297.288 319.677L313.12 324.614" stroke="black" stroke-miterlimit="10" stroke-linecap="round" stroke-linejoin="round"/>
<path d="M312.963 324.536C312.963 324.536 314.765 330.805 314.922 335.429C314.922 335.429 294.701 335.664 290.547 323.674C290.547 323.674 295.328 321.166 296.817 319.677" stroke="black" stroke-width="2" stroke-miterlimit="10"/>
<path fill-rule="evenodd" clip-rule="evenodd" d="M297.445 302.436C297.445 302.436 309.594 312.545 309.594 323.36L312.886 324.536C312.964 324.536 311.475 308.941 297.445 302.436Z" fill="black"/>
<path d="M195.555 325.868C195.555 325.868 197.044 329.16 199.238 330.805" stroke="black" stroke-width="1.0763" stroke-miterlimit="10" stroke-linecap="round" stroke-linejoin="round"/>
<path d="M223.299 249.852C223.299 249.852 224.71 279.083 226.983 297.342C228.864 312.859 232.234 328.376 232.234 328.376" stroke="black" stroke-width="1.0763" stroke-miterlimit="10" stroke-linecap="round" stroke-linejoin="round"/>
<path d="M210.682 300.634C210.682 300.634 226.044 312.624 226.435 324.379C226.671 331.589 221.341 333.705 221.341 333.705" stroke="black" stroke-width="1.0763" stroke-miterlimit="10" stroke-linecap="round" stroke-linejoin="round"/>
<path d="M223.379 333.783C223.379 333.783 229.336 330.649 230.982 323.752" stroke="black" stroke-width="2" stroke-miterlimit="10" stroke-linecap="round" stroke-linejoin="round"/>
<path d="M161.775 331.824L144.297 332.373" stroke="black" stroke-width="2" stroke-miterlimit="10" stroke-linecap="round" stroke-linejoin="round"/>
<path d="M427.789 328.141L433.589 328.611C433.589 328.611 451.537 326.887 451.537 337.78L452.008 350.084" stroke="black" stroke-width="2" stroke-miterlimit="10" stroke-linecap="round" stroke-linejoin="round"/>
<path d="M176.668 354.159L311.399 354.316C317.826 354.316 323.155 359.41 323.39 365.836L324.645 384.722" stroke="black" stroke-miterlimit="10" stroke-linecap="round" stroke-linejoin="round"/>
<path d="M457.179 235.276C457.179 235.276 459.922 250.557 460.941 258.786" stroke="black" stroke-width="2" stroke-miterlimit="10" stroke-linecap="round" stroke-linejoin="round"/>
<path d="M424.887 242.485L428.884 269.052" stroke="black" stroke-miterlimit="10" stroke-linecap="round" stroke-linejoin="round"/>
<path d="M393.536 234.257L394.947 250.636L379.585 251.654" stroke="black" stroke-miterlimit="10" stroke-linecap="round" stroke-linejoin="round"/>
<path d="M462.195 152.677L465.095 152.206" stroke="black" stroke-width="2" stroke-miterlimit="10" stroke-linecap="round" stroke-linejoin="round"/>
<path d="M464.939 156.516L466.899 139.119C466.899 139.119 467.683 134.965 471.053 133.711" stroke="black" stroke-width="2" stroke-miterlimit="10" stroke-linecap="round" stroke-linejoin="round"/>
<path fill-rule="evenodd" clip-rule="evenodd" d="M470.423 129.401L475.361 151.5C475.831 153.616 477.634 155.184 479.828 155.262C482.493 155.419 486.098 155.497 489.547 155.34C491.898 155.262 493.779 153.46 494.171 151.187L497.306 129.087C497.62 127.05 496.131 125.247 494.093 125.169C489.39 124.934 481.004 124.62 473.636 125.247C471.442 125.326 469.953 127.285 470.423 129.401Z" stroke="black" stroke-width="2" stroke-miterlimit="10" stroke-linecap="round" stroke-linejoin="round"/>
<path d="M482.966 120.389C482.966 120.389 474.658 113.257 478.342 107.38C482.496 100.797 483.671 98.054 478.655 93.9789C474.344 90.4524 478.969 84.9667 478.969 84.9667" stroke="black" stroke-miterlimit="10" stroke-linecap="round" stroke-linejoin="round"/>
<path d="M485.079 96.0164C485.079 96.0164 490.252 99.151 487.274 103.383C484.296 107.615 481.004 111.455 485.785 116" stroke="black" stroke-miterlimit="10" stroke-linecap="round" stroke-linejoin="round"/>
<path d="M473.402 126.345C478.105 127.129 486.335 127.991 494.172 126.345" stroke="black" stroke-miterlimit="10" stroke-linecap="round" stroke-linejoin="round"/>
<path d="M473.637 132.849C473.637 132.849 483.747 134.574 494.563 132.693" stroke="black" stroke-miterlimit="10" stroke-linecap="round" stroke-linejoin="round"/>
<path d="M496.132 140.372C496.132 140.372 499.267 139.354 500.286 140.764C501.305 142.175 501.854 147.504 495.113 148.679" stroke="black" stroke-width="2" stroke-miterlimit="10" stroke-linecap="round" stroke-linejoin="round"/>
<path d="M483.59 167.879C479.907 168.82 475.674 168.977 470.972 167.723" stroke="black" stroke-miterlimit="10" stroke-linecap="round" stroke-linejoin="round"/>
<path d="M496.916 148.287C496.916 148.287 502.481 151.657 500.678 154.792C498.719 158.318 492.684 165.528 483.592 167.879" stroke="black" stroke-width="2" stroke-miterlimit="10" stroke-linecap="round" stroke-linejoin="round"/>
<path d="M472.698 168.271L464.782 177.362" stroke="black" stroke-miterlimit="10" stroke-linecap="round" stroke-linejoin="round"/>
<path d="M471.442 185.904C471.442 185.904 483.199 184.18 483.983 167.879" stroke="black" stroke-width="2" stroke-miterlimit="10" stroke-linecap="round" stroke-linejoin="round"/>
<path d="M489.549 155.341L487.276 157.456C487.276 157.456 485.865 159.102 487.041 160.748C488.138 162.394 490.411 163.099 492.919 161.297C495.427 159.494 497.857 156.516 497.857 156.516" stroke="black" stroke-miterlimit="10" stroke-linecap="round" stroke-linejoin="round"/>
<path d="M529.678 126.58H579.526" stroke="black" stroke-miterlimit="10" stroke-linecap="round" stroke-linejoin="round"/>
<path d="M527.875 135.905H577.645" stroke="black" stroke-miterlimit="10" stroke-linecap="round" stroke-linejoin="round"/>
<path fill-rule="evenodd" clip-rule="evenodd" d="M302.462 189.274L296.662 187.393L291.725 176.656C291.725 176.656 301.914 177.675 302.462 189.274Z" fill="black"/>
<path d="M268.604 322.107L269.31 328.062" stroke="black" stroke-miterlimit="10" stroke-linecap="round" stroke-linejoin="round"/>
<path d="M433.508 222.58L436.878 245.15L457.491 241.858" stroke="black" stroke-miterlimit="10" stroke-linecap="round" stroke-linejoin="round"/>
<path d="M453.573 214.978L454.122 218.426" stroke="black" stroke-width="2" stroke-miterlimit="10" stroke-linecap="round" stroke-linejoin="round"/>
<path d="M446.677 334.097L326.289 357.293" stroke="black" stroke-width="1.0763" stroke-miterlimit="10" stroke-linecap="round" stroke-linejoin="round"/>
<path d="M398.159 287.39C398.159 287.39 410.308 292.64 412.267 301.809" stroke="black" stroke-miterlimit="10" stroke-linecap="round" stroke-linejoin="round"/>
<path d="M385.7 287.39C385.7 287.39 402.081 293.581 401.768 306.746" stroke="black" stroke-miterlimit="10" stroke-linecap="round" stroke-linejoin="round"/>
<path d="M205.822 297.577C205.822 297.577 222.046 296.637 227.925 310.978" stroke="black" stroke-width="1.0763" stroke-miterlimit="10" stroke-linecap="round" stroke-linejoin="round"/>
<path d="M303.481 300.712C303.481 300.712 325.114 305.179 322.841 333.548" stroke="black" stroke-width="1.0763" stroke-miterlimit="10" stroke-linecap="round" stroke-linejoin="round"/>
<path d="M291.725 328.376H231.453" stroke="black" stroke-miterlimit="10" stroke-linecap="round" stroke-linejoin="round"/>
<path d="M467.603 213.333L455.689 231.984" stroke="black" stroke-miterlimit="10" stroke-linecap="round" stroke-linejoin="round"/>
<path d="M479.752 212.941L467.761 231.592" stroke="black" stroke-miterlimit="10" stroke-linecap="round" stroke-linejoin="round"/>
<path d="M502.324 211.452L490.332 230.103" stroke="black" stroke-miterlimit="10" stroke-linecap="round" stroke-linejoin="round"/>
<path d="M506.242 216.859L459.372 219.288" stroke="black" stroke-miterlimit="10" stroke-linecap="round" stroke-linejoin="round"/>
<path d="M501.15 224.696L454.358 227.125" stroke="black" stroke-miterlimit="10" stroke-linecap="round" stroke-linejoin="round"/>
<path d="M491.664 212.784L479.751 231.357" stroke="black" stroke-miterlimit="10" stroke-linecap="round" stroke-linejoin="round"/>
<path d="M343.139 332.843C343.139 332.843 343.531 329.238 345.648 326.26" stroke="black" stroke-miterlimit="10" stroke-linecap="round" stroke-linejoin="round"/>
<path d="M346.51 334.724C346.51 334.724 346.902 330.022 349.723 327.514" stroke="black" stroke-miterlimit="10" stroke-linecap="round" stroke-linejoin="round"/>
<path d="M335.068 327.749L338.909 333.235" stroke="black" stroke-miterlimit="10" stroke-linecap="round" stroke-linejoin="round"/>
<path d="M337.575 326.495L339.927 328.142" stroke="black" stroke-miterlimit="10" stroke-linecap="round" stroke-linejoin="round"/>
</svg>
